Julia is hired to be the governess of a young girl, Sylvia who has an emotionally distant father, Eugenio, and a new stepmother, Mariana. Sylvia insists that she plays with a little boy named Hugo - whom the adults all see is a stone statue in the courtyard. When strange things begin to happen (such as Mariana, whom Sylvia dislikes, experiencing strange pains) the adults begin to wonder if Hugo may be more than just an imaginary playmate.
 
http://www.imdb.com/title/tt0242601/

------------------------------------------------------------------------------

Subtitles (.srt): English

-------------------------------------------------------------------------------

Screenshots:
 
http://imageshack.us/a/img809/9799/vlcsnap2012100323h59m52.jpg 
http://imageshack.us/a/img51/8391/vlcsnap2012100321h13m09.jpg 
http://imageshack.us/a/img834/6885/vlcsnap2012100322h28m48.jpg 
http://imageshack.us/a/img209/9366/vlcsnap2012100322h45m04.jpg 
http://imageshack.us/a/img820/7746/vlcsnap2012100400h00m53.jpg

--------------------------------------------------------------------------------

Format                                   : AVI
Format/Info                              : Audio Video Interleave
File size                                : 1.35 GiB
Duration                                 : 1h 39mn
Overall bit rate                         : 1 937 Kbps
Writing application                      : VirtualDubMod 1.5.10.2 (build 2540/release)
Writing library                          : VirtualDubMod build 2540/release

Video
ID                                       : 0
Format                                   : MPEG-4 Visual
Format profile                           : Simple@L3
Format settings, BVOP                    : No
Format settings, QPel                    : No
Format settings, GMC                     : No warppoints
Format settings, Matrix                  : Default (H.263)
Codec ID                                 : XVID
Codec ID/Hint                            : XviD
Duration                                 : 1h 39mn
Bit rate                                 : 1 800 Kbps
Width                                    : 640 pixels
Height                                   : 480 pixels
Display aspect ratio                     : 4:3
Frame rate                               : 23.976 fps
Color space                              : YUV
Chroma subsampling                       : 4:2:0
Bit depth                                : 8 bits
Scan type                                : Progressive
Compression mode                         : Lossy
Bits/(Pixel*Frame)                       : 0.244
Stream size                              : 1.25 GiB (93%)
Writing library                          : XviD 1.2.1 (UTC 2008-12-04)

Audio
ID                                       : 1
Format                                   : MPEG Audio
Format version                           : Version 1
Format profile                           : Layer 3
Mode                                     : Joint stereo
Mode extension                           : MS Stereo
Codec ID                                 : 55
Codec ID/Hint                            : MP3
Duration                                 : 1h 39mn
Bit rate mode                            : Constant
Bit rate                                 : 128 Kbps
Channel(s)                               : 2 channels
Sampling rate                            : 48.0 KHz
Compression mode                         : Lossy
Stream size                              : 91.2 MiB (7%)
Alignment                                : Aligned on interleaves
Interleave, duration                     : 42 ms (1.00 video frame)
Interleave, preload duration             : 504 ms

